<svg id="Layer_1" data-name="Layer 1" xmlns="http://www.w3.org/2000/svg" viewBox="0 0 1600 1600"><defs><style>.cls-1{fill:#1a75bc;}.cls-2{fill:none;}.cls-3{fill:#22537d;}.cls-4{fill:#188853;}.cls-5{fill:#45aa70;}.cls-6{fill:#827e7f;}.cls-7{fill:#594d46;}.cls-8{fill:#8fcfaf;}.cls-9{fill:#5382c2;}</style></defs><title>Artboard 1</title><path class="cls-1" d="M1359.09,1267.6c0,113.54-278.51,165.28-400.92,175.3V457.11c206.54-124.79,330-188.93,400.92-168.28"/><line class="cls-2" x1="276.07" y1="1051.03" x2="703.38" y2="962.41"/><polygon class="cls-3" points="958.17 1442.9 813.42 1306.22 813.42 403.74 958.17 471.31 958.17 1442.9"/><polygon class="cls-4" points="813.42 869.84 276.07 992.72 276.07 327.33 813.42 211.46 813.42 869.84"/><path class="cls-5" d="M276.07,327.28,813.42,211.41,911.83,95C467.75,180.58,275.26,273.66,276.07,327.28Z"/><path class="cls-6" d="M276.07,914.24v91.87c0,94.65,167,179.59,682.1,143.05V863.93C688.33,930,435.57,972.6,276.07,914.24Z"/><path class="cls-7" d="M276.07,914.24,813.42,799.39l144.75,64.54C826.51,903.08,362.74,992.72,276.07,914.24Z"/><polygon class="cls-8" points="911.83 286.76 813.42 403.74 813.42 211.46 911.83 94.99 911.83 286.76"/><path class="cls-9" d="M813.42,403.74l144.75,67.57c306-84.68,407.67-136.06,400.92-182.48-5.2-35.8-170.76-50.18-447.26-2.07Z"/></svg>