<?xml version="1.0" encoding="utf-8"?>
<!-- Generator: Adobe Illustrator 23.0.4, SVG Export Plug-In . SVG Version: 6.00 Build 0)  -->
<svg version="1.1" id="Layer_1" xmlns="http://www.w3.org/2000/svg" xmlns:xlink="http://www.w3.org/1999/xlink" x="0px" y="0px"
	 viewBox="0 0 3200 1600" style="enable-background:new 0 0 3200 1600;" xml:space="preserve">
<style type="text/css">
	.st0{fill:#3E63AE;stroke:#000000;stroke-miterlimit:10;}
	.st1{fill:#EE297B;}
	.st2{fill:none;}
	.st3{fill:#1A75BC;}
	.st4{fill:none;stroke:#000000;stroke-miterlimit:10;}
	.st5{fill:#22537D;}
	.st6{fill:#188853;}
	.st7{fill:#45AA70;}
	.st8{fill:#827E7F;}
	.st9{fill:#594D46;}
	.st10{fill:#8FCFAF;}
	.st11{fill:#5382C2;}
</style>
<g>
	<g>
		<path class="st3" d="M884.1,1019.5c0,52.4-128.6,76.3-185.2,81c0-151.8,0-303.5,0-455.3c95.4-57.6,152.4-87.3,185.2-77.7"/>
	</g>
	<g>
		<line class="st2" x1="383.9" y1="919.5" x2="581.3" y2="878.5"/>
	</g>
	<g>
		<polygon class="st5" points="699,1100.5 632.1,1037.3 632.1,620.5 699,651.7 		"/>
	</g>
	<g>
		<polygon class="st6" points="632.1,835.8 383.9,892.5 383.9,585.2 632.1,531.7 		"/>
	</g>
	<g>
		<path class="st7" d="M383.9,585.2l248.2-53.5l45.4-53.8C472.5,517.5,383.6,560.4,383.9,585.2z"/>
	</g>
	<g>
		<path class="st8" d="M383.9,856.3v42.4c0,43.7,77.1,82.9,315,66.1V833.1C574.3,863.6,457.6,883.2,383.9,856.3z"/>
	</g>
	<g>
		<path class="st9" d="M383.9,856.3l248.2-53l66.9,29.8C638.2,851.1,424,892.5,383.9,856.3z"/>
	</g>
	<g>
		<polygon class="st10" points="677.6,566.5 632.1,620.5 632.1,531.7 677.6,477.9 		"/>
	</g>
	<g>
		<path class="st11" d="M632.1,620.5l66.9,31.2c141.3-39.1,188.3-62.8,185.2-84.3c-2.4-16.5-78.9-23.2-206.6-1L632.1,620.5z"/>
	</g>
	<g>
		<path class="st3" d="M958.6,717h72.5c19.2,0,33.6,4.2,43.2,12.5c9.6,8.3,14.4,21.8,14.4,40.4c0,11.2-1.5,20-4.6,26.6
			c-3.1,6.6-8.3,12.4-15.8,17.5c8.1,3.7,14.2,9.1,18.1,16.2c3.9,7.1,5.8,16.8,5.8,29.4c0,19.4-5.3,33.8-15.8,43.2
			c-10.5,9.4-25.3,14.1-44.3,14.1h-73.6V717z M1029.2,751.7h-33.1v47.6h33.4c14.1,0,21.2-7.9,21.2-23.8S1043.5,751.7,1029.2,751.7z
			 M1030.3,833.4h-34.2v48.8h34.2c8.1,0,14.2-1.8,18.1-5.3c3.9-3.5,5.8-10,5.8-19.4C1054.2,841.4,1046.2,833.4,1030.3,833.4z"/>
		<path class="st3" d="M1106.3,916.8l41.6-199.8h71.2l41.6,199.8h-37.5l-7.3-36.1h-64.6l-7.3,36.1H1106.3z M1177,750.5l-18.7,94.9
			h50.5l-18.7-94.9H1177z"/>
		<path class="st3" d="M1340.2,748.7c-19.7,0-29.6,7.1-29.6,21.2c0,6.3,2.4,11.1,7.3,14.4c4.9,3.3,16.3,8.1,34.4,14.4
			c18,6.3,30.6,13.4,37.9,21.3c7.2,7.9,10.9,20.1,10.9,36.6c0,21-5.9,36.8-17.7,47.6c-11.8,10.8-27.2,16.2-46.2,16.2
			c-14.1,0-31.4-2.4-51.9-7.1l-9.8-2.1l3.8-31.4c24.3,3.5,42.8,5.3,55.7,5.3c19.2,0,28.8-8.6,28.8-25.9c0-6.3-2.2-11.2-6.7-14.7
			c-4.4-3.5-13.3-7.3-26.5-11.5c-21-6.5-35.8-14.1-44.4-23.1c-8.6-8.9-12.9-21.3-12.9-37.2c0-20,5.6-34.9,16.8-44.7
			c11.2-9.8,26.6-14.7,46.2-14.7c13.4,0,30.4,2,51.1,5.9l9.8,2.1l-3,32C1368.7,750.3,1350.7,748.7,1340.2,748.7z"/>
		<path class="st3" d="M1431.2,916.8V717h37.5v199.8H1431.2z"/>
		<path class="st3" d="M1508.9,916.8V717h63.3l44.5,164.5h2.7V717h37.5v199.8h-61.7l-46.2-164.5h-2.7v164.5H1508.9z"/>
		<path class="st3" d="M1862,916.8h-105.1V717h37.5v164h67.6V916.8z"/>
		<path class="st3" d="M2011.2,895.5c-11.5,16.6-31.3,24.8-59.4,24.8c-28.1,0-47.9-8.3-59.3-24.8c-11.5-16.6-17.2-42.5-17.2-77.7
			c0-35.3,5.7-61.5,17.2-78.6c11.5-17.1,31.3-25.7,59.3-25.7c28.1,0,47.8,8.6,59.4,25.7c11.5,17.1,17.2,43.3,17.2,78.6
			C2028.5,853.1,2022.7,879,2011.2,895.5z M1921.9,869.7c5.3,10.3,15.3,15.4,30,15.4c14.7,0,24.7-5.1,30-15.4
			c5.3-10.3,8-27.5,8-51.7c0-24.2-2.7-41.8-8.1-52.7c-5.4-11-15.4-16.5-29.9-16.5c-14.5,0-24.4,5.5-29.9,16.5
			c-5.4,11-8.1,28.6-8.1,52.7C1913.9,842.1,1916.5,859.4,1921.9,869.7z"/>
		<path class="st3" d="M2137.4,845.1v-35.3h53.8v103.7c-25.9,4.5-46.9,6.8-63,6.8c-28.8,0-48.6-8.3-59.3-25
			c-10.8-16.6-16.2-43.1-16.2-79.3c0-36.2,5.6-62.4,16.8-78.4c11.2-16.1,30.3-24.1,57.3-24.1c16.8,0,35,2.1,54.6,6.2l9.8,2.1
			l-1.1,31.4c-21.7-2.5-39.5-3.8-53.4-3.8c-13.9,0-23.6,1.8-29.2,5.3c-5.6,3.5-9.7,10-12.4,19.5c-2.6,9.5-3.9,25.8-3.9,48.8
			c0,23,2.6,39.1,7.9,48.3c5.2,9.2,16.1,13.8,32.6,13.8l22.5-1.2v-38.8H2137.4z"/>
		<path class="st3" d="M2226.5,916.8V717h37.5v199.8H2226.5z"/>
		<path class="st3" d="M2328.1,717l34.2,73.5l35-73.5h38.8l-53.2,102l53.2,97.8h-41.6l-34.2-69l-35,69h-38.8l53.2-95.8l-53.2-104
			H2328.1z"/>
	</g>
</g>
</svg>
